<?xml version="1.0" encoding="utf-8"?>
<!-- Generator: Adobe Illustrator 16.0.0, SVG Export Plug-In . SVG Version: 6.00 Build 0)  -->
<!DOCTYPE svg PUBLIC "-//W3C//DTD SVG 1.1//EN" "http://www.w3.org/Graphics/SVG/1.1/DTD/svg11.dtd">
<svg version="1.1" id="Layer_1" xmlns="http://www.w3.org/2000/svg" xmlns:xlink="http://www.w3.org/1999/xlink" x="0px" y="0px"
	 width="60px" height="76px" viewBox="0 0 60 76" enable-background="new 0 0 60 76" xml:space="preserve">
<g id="Shape_1">
	<g>
		<path fill="#010101" d="M59.6,5H60l0-5h-5v0.4C55,1.2,54.2,2,53.4,2s-1.6-0.7-1.6-1.6V0l-4.7,0v0.4c0,0.9-0.7,1.6-1.6,1.6
			s-1.6-0.7-1.6-1.6V0h-4.6v0.4c0,0.9-0.7,1.6-1.6,1.6c-0.9,0-1.6-0.7-1.6-1.6V0h-4.6v0.4c0,0.9-0.7,1.6-1.6,1.6
			c-0.9,0-1.6-0.7-1.6-1.6V0h-4.6v0.4C23.6,1.2,22.8,2,22,2c-0.9,0-1.6-0.7-1.6-1.6V0h-4.6v0.4C15.7,1.2,15,2,14.1,2
			c-0.9,0-1.6-0.7-1.6-1.6V0H7.9v0.4C7.9,1.2,7.1,2,6.2,2C5.4,2,4.6,1.2,4.6,0.4V0H0v5h0.4C1.2,5,2,5.7,2,6.6S1.2,8.2,0.4,8.2H0v4.6
			h0.4c0.9,0,1.6,0.7,1.6,1.6s-0.7,1.6-1.6,1.6H0v4.6h0.4c0.9,0,1.6,0.7,1.6,1.6s-0.7,1.6-1.6,1.6H0v4.6h0.4c0.9,0,1.6,0.7,1.6,1.6
			c0,0.9-0.7,1.6-1.6,1.6H0v4.6h0.4C1.2,36.4,2,37.1,2,38c0,0.9-0.7,1.6-1.6,1.6H0v4.6h0.4C1.2,44.2,2,45,2,45.8
			c0,0.9-0.7,1.6-1.6,1.6H0v4.6h0.4c0.9,0,1.6,0.7,1.6,1.6c0,0.9-0.7,1.6-1.6,1.6H0v4.6h0.4c0.9,0,1.6,0.7,1.6,1.6
			c0,0.9-0.7,1.6-1.6,1.6H0v5h0.4c0.9,0,1.6,0.7,1.6,1.6c0,0.9-0.7,1.6-1.6,1.6H0V76h4.6v-0.4c0-0.9,0.7-1.6,1.6-1.6
			c0.9,0,1.6,0.7,1.6,1.6V76h4.6v-0.4c0-0.9,0.7-1.6,1.6-1.6c0.9,0,1.6,0.7,1.6,1.6V76h4.6v-0.4c0-0.9,0.7-1.6,1.6-1.6
			c0.9,0,1.6,0.7,1.6,1.6V76h4.6v-0.4c0-0.9,0.7-1.6,1.6-1.6c0.9,0,1.6,0.7,1.6,1.6V76h4.6v-0.4c0-0.9,0.7-1.6,1.6-1.6
			c0.9,0,1.6,0.7,1.6,1.6V76h4.6v-0.4c0-0.9,0.7-1.6,1.6-1.6s1.6,0.7,1.6,1.6V76h4.6v-0.4c0-0.9,0.7-1.6,1.6-1.6s1.6,0.7,1.6,1.6V76
			h5v-4.6h-0.4c-0.9,0-1.6-0.7-1.6-1.6c0-0.9,0.7-1.6,1.6-1.6H60v-5h-0.4c-0.9,0-1.6-0.7-1.6-1.6c0-0.9,0.7-1.6,1.6-1.6H60v-4.6
			h-0.4c-0.9,0-1.6-0.7-1.6-1.6c0-0.9,0.7-1.6,1.6-1.6H60v-4.6h-0.4c-0.9,0-1.6-0.7-1.6-1.6c0-0.9,0.7-1.6,1.6-1.6H60v-4.6h-0.4
			c-0.9,0-1.6-0.7-1.6-1.6c0-0.9,0.7-1.6,1.6-1.6H60v-4.6h-0.4c-0.9,0-1.6-0.7-1.6-1.6c0-0.9,0.7-1.6,1.6-1.6H60v-4.6h-0.4
			c-0.9,0-1.6-0.7-1.6-1.6s0.7-1.6,1.6-1.6H60v-4.6h-0.4c-0.9,0-1.6-0.7-1.6-1.6s0.7-1.6,1.6-1.6H60V8.2h-0.4
			c-0.9,0-1.6-0.7-1.6-1.6S58.7,5,59.6,5z M59.3,8.9v3.3c-1.1,0.2-2,1.1-2,2.3s0.9,2.1,2,2.3V20c-1.1,0.2-2,1.1-2,2.3s0.9,2.1,2,2.3
			v3.3c-1.1,0.2-2,1.1-2,2.3s0.9,2.1,2,2.3v3.3c-1.1,0.2-2,1.1-2,2.3c0,1.2,0.9,2.1,2,2.3v3.3c-1.1,0.2-2,1.1-2,2.3
			c0,1.2,0.9,2.1,2,2.3v3.3c-1.1,0.2-2,1.1-2,2.3c0,1.2,0.9,2.1,2,2.3v3.3c-1.1,0.2-2,1.1-2,2.3c0,1.2,0.9,2.1,2,2.3v3.7
			c-1.1,0.2-2,1.1-2,2.3c0,1.2,0.9,2.1,2,2.3v3.2h-3.6c-0.2-1.1-1.1-2-2.3-2s-2.1,0.9-2.3,2h-3.3c-0.2-1.1-1.1-2-2.3-2
			s-2.1,0.9-2.3,2h-3.3c-0.2-1.1-1.1-2-2.3-2s-2.1,0.9-2.3,2h-3.3c-0.2-1.1-1.1-2-2.3-2c-1.2,0-2.1,0.9-2.3,2h-3.3
			c-0.2-1.1-1.1-2-2.3-2c-1.2,0-2.1,0.9-2.3,2h-3.3c-0.2-1.1-1.1-2-2.3-2c-1.2,0-2.1,0.9-2.3,2H8.5c-0.2-1.1-1.1-2-2.3-2
			c-1.2,0-2.1,0.9-2.3,2H0.7V72c1.1-0.2,2-1.1,2-2.3c0-1.2-0.9-2.1-2-2.3v-3.7c1.1-0.2,2-1.1,2-2.3c0-1.2-0.9-2.1-2-2.3V56
			c1.1-0.2,2-1.1,2-2.3c0-1.2-0.9-2.1-2-2.3v-3.3c1.1-0.2,2-1.1,2-2.3c0-1.2-0.9-2.1-2-2.3v-3.3c1.1-0.2,2-1.1,2-2.3
			c0-1.2-0.9-2.1-2-2.3v-3.3c1.1-0.2,2-1.1,2-2.3s-0.9-2.1-2-2.3v-3.3c1.1-0.2,2-1.1,2-2.3s-0.9-2.1-2-2.3v-3.3c1.1-0.2,2-1.1,2-2.3
			s-0.9-2.1-2-2.3V8.9c1.1-0.2,2-1.1,2-2.3c0-1.2-0.9-2.1-2-2.3V0.7H4c0.2,1.1,1.1,2,2.3,2c1.2,0,2.1-0.9,2.3-2h3.3
			c0.2,1.1,1.1,2,2.3,2c1.2,0,2.1-0.9,2.3-2h3.3c0.2,1.1,1.1,2,2.3,2c1.2,0,2.1-0.9,2.3-2h3.3c0.2,1.1,1.1,2,2.3,2
			c1.2,0,2.1-0.9,2.3-2h3.3c0.2,1.1,1.1,2,2.3,2c1.2,0,2.1-0.9,2.3-2h3.3c0.2,1.1,1.1,2,2.3,2s2.1-0.9,2.3-2c0.5,0,2.8,0,3.3,0
			c0.2,1.1,1.1,2,2.3,2s2.1-0.9,2.3-2h3.6c0,0.6,0,3.1,0,3.6c-1.1,0.2-2,1.1-2,2.3C57.3,7.8,58.2,8.7,59.3,8.9z"/>
	</g>
</g>
</svg>
